<svg width="32" height="32" viewBox="0 0 32 32" fill="none" xmlns="http://www.w3.org/2000/svg">
<rect width="32" height="32" rx="4" fill="#92400d"/>
<path d="M6 16C6 12.6863 8.68629 10 12 10H20C23.3137 10 26 12.6863 26 16V20C26 23.3137 23.3137 26 20 26H12C8.68629 26 6 23.3137 6 20V16Z" fill="#f97316"/>
<path d="M8 16C8 13.7909 9.79086 12 12 12H20C22.2091 12 24 13.7909 24 16V20C24 19.1046 23.1046 18 22 18H10C8.89543 18 8 19.1046 8 20V16Z" fill="#6366f1"/>
<circle cx="10" cy="22" r="2" fill="#f97316"/>
<circle cx="22" cy="22" r="2" fill="#f97316"/>
</svg>